<svg width="524" height="530" viewBox="0 0 524 530" fill="none" xmlns="http://www.w3.org/2000/svg">
<path d="M447.418 326.404C406.701 421.575 299.222 462.449 215.01 455.483C192.016 453.58 145.754 449.751 109.63 415.592C40.2645 349.989 50.9441 212.863 117.352 132.13C125.904 121.734 185.098 52.0772 277.343 53.0093C344.881 53.6924 392.285 91.8431 398.048 96.596C405.329 102.599 421.39 116.867 435.864 139.503C469.873 192.686 472.861 266.931 447.418 326.404Z" fill="url(#paint0_linear_202:2249)"/>
<path d="M448.554 148.706H219.897V340.31H448.554V148.706Z" fill="url(#paint1_linear_202:2249)"/>
<path d="M456.487 123.847L211.815 125.386C208.497 125.407 205.759 127.836 205.759 130.81V167.315C205.759 170.18 208.342 172.526 211.536 172.539L456.488 174.08C460.121 174.103 463.18 171.64 463.18 168.58V129.359C463.18 126.287 460.125 123.824 456.487 123.847Z" fill="url(#paint2_linear_202:2249)"/>
<path d="M456.375 123.847L211.533 125.387C208.339 125.407 205.752 127.746 205.752 130.61L462.957 129.348C462.957 126.287 460.008 123.824 456.375 123.847Z" fill="url(#paint3_linear_202:2249)"/>
<path d="M211.533 172.539L456.375 174.08C460.008 174.103 462.957 171.64 462.957 168.58L205.752 167.318C205.752 170.179 208.339 172.518 211.533 172.539Z" fill="url(#paint4_linear_202:2249)"/>
<path d="M456.683 184.721L211.824 184.213C208.4 184.213 205.567 186.683 205.531 189.747L205.062 227.429C205.026 230.392 207.667 232.817 210.972 232.846L456.672 234.994C460.205 235.024 463.185 232.562 463.185 229.494V190.265C463.18 187.21 460.209 184.728 456.683 184.721Z" fill="url(#paint5_linear_202:2249)"/>
<path d="M456.57 184.721L211.543 184.211C208.246 184.211 205.547 186.59 205.511 189.541L462.963 190.265C462.957 187.21 460.096 184.728 456.57 184.721Z" fill="url(#paint6_linear_202:2249)"/>
<path d="M210.964 232.846L456.556 234.994C460.09 235.024 462.958 232.562 462.958 229.494L205.049 227.429C205.012 230.391 207.66 232.817 210.964 232.846Z" fill="url(#paint7_linear_202:2249)"/>
<path d="M456.788 245.727H212.158C208.621 245.727 205.759 248.332 205.759 251.516V290.531C205.759 293.592 208.508 295.944 211.921 295.944H456.788C460.195 295.944 463.18 293.592 463.18 290.531V251.302C463.18 248.239 460.195 245.727 456.788 245.727Z" fill="url(#paint8_linear_202:2249)"/>
<path d="M456.787 245.727H211.921C208.514 245.727 205.752 248.164 205.752 251.09H462.957C462.957 248.164 460.194 245.727 456.787 245.727Z" fill="url(#paint9_linear_202:2249)"/>
<path d="M211.921 295.944H456.787C460.194 295.944 462.957 293.506 462.957 290.581H205.752C205.752 293.512 208.514 295.944 211.921 295.944Z" fill="url(#paint10_linear_202:2249)"/>
<path d="M457.047 307.722L212.28 306.764C208.678 306.749 205.759 309.317 205.759 312.496V351.514C205.759 354.574 208.568 357.056 212.035 357.056L456.918 357.15C460.266 357.15 462.984 354.717 462.997 351.712L463.105 313.191C463.105 310.184 460.397 307.735 457.047 307.722Z" fill="url(#paint11_linear_202:2249)"/>
<path d="M457.046 307.722L212.035 306.762C208.562 306.749 205.752 309.223 205.752 312.284L463.096 313.191C463.105 310.184 460.397 307.735 457.046 307.722Z" fill="url(#paint12_linear_202:2249)"/>
<path d="M212.033 357.056L456.915 357.15C460.263 357.15 462.982 354.717 462.994 351.712L205.759 351.514C205.753 354.573 208.565 357.056 212.033 357.056Z" fill="url(#paint13_linear_202:2249)"/>
<g opacity="0.3">
<path opacity="0.3" d="M331.665 128.903C331.263 128.832 330.901 128.616 330.65 128.296C330.398 127.975 330.273 127.573 330.3 127.166C330.424 125.303 330.631 123.42 330.915 121.566C330.948 121.352 331.022 121.146 331.134 120.96C331.247 120.775 331.394 120.613 331.569 120.485C331.744 120.356 331.942 120.263 332.153 120.212C332.363 120.16 332.582 120.15 332.796 120.183H332.827C333.254 120.256 333.635 120.495 333.888 120.847C334.141 121.199 334.245 121.636 334.179 122.064C333.908 123.825 333.711 125.616 333.592 127.384C333.563 127.821 333.361 128.229 333.032 128.518C332.702 128.806 332.271 128.952 331.834 128.923C331.779 128.918 331.721 128.911 331.665 128.903ZM334.221 114.739C334.156 114.728 334.092 114.713 334.03 114.694C333.61 114.569 333.257 114.282 333.048 113.897C332.839 113.512 332.792 113.059 332.917 112.639C333.451 110.843 334.074 109.051 334.749 107.316C334.909 106.908 335.224 106.581 335.625 106.405C336.027 106.23 336.482 106.221 336.889 106.381C337.297 106.541 337.625 106.856 337.8 107.258C337.976 107.659 337.984 108.114 337.824 108.522C337.176 110.173 336.591 111.874 336.088 113.587C335.971 113.974 335.716 114.305 335.373 114.517C335.029 114.73 334.619 114.809 334.221 114.739ZM339.832 101.491C339.571 101.446 339.325 101.338 339.114 101.178C338.903 101.018 338.734 100.81 338.62 100.571C338.507 100.332 338.453 100.069 338.462 99.8042C338.471 99.5396 338.544 99.2812 338.674 99.0506C339.591 97.4224 340.593 95.8116 341.648 94.2745C341.767 94.0884 341.923 93.9281 342.105 93.8031C342.288 93.6781 342.493 93.591 342.71 93.5469C342.927 93.5028 343.15 93.5027 343.367 93.5465C343.584 93.5903 343.789 93.6771 343.972 93.8019C344.155 93.9267 344.31 94.0868 344.43 94.2728C344.549 94.4588 344.63 94.6669 344.668 94.8848C344.706 95.1027 344.699 95.3259 344.649 95.5413C344.599 95.7567 344.506 95.9598 344.376 96.1387C343.373 97.6048 342.424 99.1331 341.551 100.68C341.383 100.976 341.127 101.212 340.82 101.357C340.512 101.502 340.167 101.549 339.832 101.491ZM348.267 89.827C347.957 89.774 347.669 89.6328 347.437 89.4203C347.277 89.2743 347.147 89.098 347.055 88.9017C346.963 88.7055 346.91 88.4929 346.9 88.2763C346.89 88.0596 346.922 87.8431 346.996 87.6391C347.07 87.4351 347.183 87.2476 347.329 87.0873C348.589 85.7036 349.925 84.3591 351.299 83.0884C351.458 82.9411 351.645 82.8266 351.848 82.7515C352.052 82.6763 352.268 82.642 352.485 82.6505C352.702 82.659 352.915 82.71 353.112 82.8008C353.309 82.8916 353.486 83.0203 353.633 83.1796C353.78 83.3388 353.895 83.5256 353.97 83.7291C354.045 83.9326 354.08 84.1489 354.071 84.3657C354.063 84.5825 354.012 84.7955 353.921 84.9925C353.83 85.1895 353.701 85.3667 353.542 85.514C352.239 86.7196 350.969 87.9976 349.772 89.3132C349.584 89.5187 349.348 89.6736 349.085 89.7634C348.822 89.8533 348.54 89.8751 348.267 89.827ZM359.091 80.3385C358.769 80.2823 358.47 80.1316 358.233 79.9056C357.997 79.6795 357.833 79.3883 357.762 79.0688C357.691 78.7494 357.716 78.416 357.835 78.111C357.953 77.806 358.16 77.5431 358.428 77.3556C359.961 76.289 361.56 75.273 363.182 74.3366C363.37 74.2282 363.578 74.1578 363.793 74.1295C364.008 74.1012 364.226 74.1156 364.436 74.1718C364.645 74.2279 364.842 74.3248 365.014 74.4569C365.186 74.589 365.33 74.7537 365.439 74.9416C365.547 75.1294 365.618 75.3368 365.646 75.5519C365.674 75.767 365.66 75.9855 365.604 76.195C365.547 76.4045 365.45 76.6009 365.318 76.773C365.186 76.9451 365.022 77.0895 364.834 77.1979C363.292 78.0865 361.771 79.0533 360.315 80.0664C359.959 80.3154 359.519 80.4132 359.091 80.3385ZM371.743 73.4812C371.389 73.4201 371.065 73.2454 370.82 72.9836C370.574 72.7218 370.42 72.3872 370.382 72.0302C370.343 71.6733 370.422 71.3136 370.606 71.0053C370.79 70.6971 371.069 70.4571 371.402 70.3218C373.138 69.6184 374.92 68.9816 376.706 68.4287C376.915 68.3574 377.137 68.3287 377.357 68.3444C377.577 68.3601 377.793 68.4198 377.99 68.5201C378.186 68.6204 378.361 68.7592 378.504 68.9282C378.646 69.0973 378.753 69.2932 378.818 69.5043C378.884 69.7155 378.906 69.9376 378.884 70.1575C378.862 70.3775 378.796 70.5908 378.69 70.7848C378.585 70.9788 378.441 71.1496 378.268 71.2871C378.095 71.4246 377.896 71.526 377.683 71.5853C375.985 72.1106 374.29 72.7156 372.643 73.3828C372.359 73.4999 372.047 73.5341 371.743 73.4812ZM432.064 79.9174C431.832 79.8768 431.611 79.787 431.417 79.6539C429.949 78.6553 428.419 77.7073 426.868 76.8361C426.679 76.7299 426.512 76.5876 426.378 76.4171C426.244 76.2467 426.145 76.0515 426.086 75.8427C426.028 75.6339 426.011 75.4156 426.036 75.2003C426.062 74.985 426.13 74.7768 426.236 74.5877C426.342 74.3986 426.485 74.2322 426.655 74.0981C426.825 73.964 427.021 73.8648 427.229 73.8062C427.438 73.7475 427.656 73.7305 427.872 73.7562C428.087 73.7819 428.295 73.8498 428.484 73.9559C430.118 74.8735 431.731 75.8707 433.276 76.9229C433.588 77.1355 433.818 77.4486 433.928 77.81C434.037 78.1713 434.019 78.5593 433.878 78.9093C433.736 79.2593 433.479 79.5502 433.149 79.7336C432.819 79.917 432.436 79.9818 432.064 79.9174ZM385.589 69.5996C385.205 69.5324 384.856 69.3312 384.606 69.0315C384.355 68.7318 384.219 68.3532 384.221 67.9626C384.223 67.572 384.363 67.1948 384.617 66.8978C384.871 66.6009 385.221 66.4033 385.607 66.3403C387.452 66.0407 389.334 65.8178 391.199 65.6774C391.418 65.6559 391.64 65.6785 391.85 65.7437C392.06 65.8089 392.255 65.9155 392.424 66.0572C392.592 66.199 392.731 66.3729 392.831 66.5689C392.932 66.7649 392.992 66.979 393.008 67.1986C393.025 67.4182 392.997 67.6388 392.927 67.8476C392.857 68.0564 392.746 68.2491 392.601 68.4144C392.455 68.5797 392.278 68.7143 392.08 68.8102C391.882 68.9061 391.667 68.9614 391.447 68.9729C389.675 69.1061 387.889 69.3174 386.137 69.601C385.955 69.631 385.77 69.6305 385.589 69.5996ZM419.329 73.2178C419.219 73.1989 419.112 73.1688 419.009 73.1281C417.355 72.4826 415.65 71.9008 413.943 71.3913C413.73 71.3342 413.531 71.2351 413.357 71.0997C413.183 70.9644 413.038 70.7956 412.93 70.6032C412.822 70.4109 412.754 70.1989 412.729 69.9798C412.704 69.7606 412.724 69.5388 412.786 69.3273C412.849 69.1158 412.953 68.9189 413.092 68.7482C413.232 68.5775 413.404 68.4366 413.599 68.3335C413.794 68.2305 414.008 68.1676 414.228 68.1484C414.447 68.1292 414.669 68.1541 414.878 68.2218C416.674 68.7529 418.468 69.3651 420.209 70.0439C420.589 70.1933 420.901 70.4785 421.084 70.8444C421.266 71.2102 421.307 71.6308 421.197 72.0248C421.088 72.4188 420.836 72.7582 420.491 72.9775C420.146 73.1968 419.732 73.2803 419.329 73.212V73.2178ZM399.958 68.915C399.543 68.8406 399.173 68.6104 398.922 68.2716C398.671 67.9328 398.559 67.511 398.609 67.0925C398.659 66.6739 398.867 66.2902 399.19 66.0199C399.514 65.7496 399.928 65.6131 400.349 65.6383C402.213 65.7599 404.097 65.9625 405.949 66.2433H405.983C406.197 66.2781 406.403 66.3547 406.587 66.4688C406.772 66.5828 406.932 66.7321 407.059 66.9081C407.185 67.0841 407.276 67.2833 407.326 67.4945C407.376 67.7056 407.384 67.9244 407.349 68.1385C407.314 68.3526 407.237 68.5578 407.123 68.7423C407.009 68.9268 406.86 69.087 406.684 69.2138C406.508 69.3406 406.309 69.4315 406.098 69.4813C405.887 69.5311 405.668 69.5388 405.454 69.5041C403.695 69.2378 401.905 69.0453 400.135 68.9251C400.077 68.9266 400.018 68.9194 399.96 68.9092L399.958 68.915Z" fill="#91B3FA"/>
<path opacity="0.3" d="M441.021 87.2857C440.693 87.228 440.39 87.0721 440.153 86.8385C439.548 86.2407 438.918 85.6444 438.284 85.0684C438.124 84.9224 437.994 84.7463 437.901 84.55C437.809 84.3537 437.756 84.1412 437.746 83.9245C437.735 83.7078 437.768 83.4911 437.841 83.287C437.915 83.0828 438.028 82.8952 438.173 82.7346C438.319 82.5741 438.496 82.444 438.692 82.3515C438.888 82.2591 439.101 82.2062 439.317 82.1959C439.534 82.1857 439.751 82.2182 439.955 82.2916C440.159 82.365 440.347 82.478 440.507 82.6239C441.174 83.2303 441.836 83.857 442.474 84.4866C442.726 84.7338 442.891 85.0551 442.947 85.4033C443.003 85.7515 442.946 86.1084 442.784 86.4218C442.622 86.7351 442.364 86.9885 442.048 87.1447C441.732 87.301 441.374 87.3519 441.027 87.29L441.021 87.2857Z" fill="#91B3FA"/>
</g>
<g opacity="0.3">
<path opacity="0.3" d="M460.209 133.855C459.822 133.788 459.472 133.585 459.221 133.283C458.97 132.981 458.835 132.599 458.84 132.207C458.85 131.356 458.84 130.489 458.818 129.634C458.805 129.196 458.967 128.771 459.268 128.452C459.569 128.133 459.984 127.947 460.422 127.934C460.86 127.922 461.285 128.084 461.603 128.384C461.922 128.685 462.108 129.1 462.121 129.538C462.147 130.44 462.154 131.351 462.144 132.247C462.141 132.464 462.096 132.679 462.01 132.878C461.925 133.078 461.801 133.259 461.646 133.41C461.49 133.562 461.307 133.681 461.105 133.762C460.903 133.842 460.688 133.883 460.471 133.88C460.383 133.878 460.296 133.87 460.209 133.855Z" fill="#91B3FA"/>
<path opacity="0.3" d="M384.974 196.523C384.225 196.395 383.476 196.252 382.725 196.096C382.3 196.003 381.93 195.745 381.693 195.38C381.457 195.015 381.374 194.571 381.463 194.146C381.551 193.72 381.804 193.346 382.166 193.105C382.529 192.865 382.971 192.776 383.398 192.86C385.135 193.219 386.872 193.508 388.595 193.72C389.03 193.773 389.426 193.997 389.696 194.342C389.966 194.687 390.087 195.126 390.034 195.561C389.98 195.996 389.757 196.391 389.411 196.661C389.066 196.931 388.628 197.053 388.193 196.999C387.126 196.869 386.044 196.708 384.974 196.523ZM374.328 193.741C374.235 193.726 374.144 193.702 374.056 193.67C372.319 193.055 370.582 192.359 368.912 191.602C368.714 191.513 368.536 191.386 368.388 191.227C368.239 191.069 368.124 190.883 368.047 190.68C367.892 190.271 367.907 189.816 368.087 189.417C368.267 189.018 368.599 188.706 369.009 188.552C369.419 188.397 369.873 188.412 370.272 188.592C371.864 189.316 373.507 189.971 375.159 190.557C375.548 190.696 375.872 190.975 376.066 191.34C376.259 191.706 376.309 192.13 376.204 192.531C376.1 192.931 375.849 193.277 375.502 193.501C375.154 193.726 374.735 193.811 374.328 193.741ZM396.878 197.458C396.471 197.389 396.105 197.171 395.851 196.845C395.597 196.52 395.475 196.111 395.507 195.7C395.54 195.288 395.725 194.904 396.027 194.622C396.328 194.341 396.725 194.182 397.137 194.178C398.883 194.152 400.65 194.051 402.392 193.877C402.611 193.85 402.834 193.866 403.046 193.926C403.259 193.986 403.457 194.087 403.629 194.225C403.802 194.363 403.945 194.533 404.051 194.727C404.156 194.921 404.222 195.134 404.244 195.354C404.266 195.573 404.243 195.795 404.178 196.006C404.113 196.217 404.006 196.412 403.864 196.581C403.722 196.75 403.547 196.889 403.351 196.989C403.154 197.09 402.94 197.15 402.719 197.166C400.886 197.348 399.023 197.455 397.186 197.483C397.083 197.484 396.98 197.476 396.878 197.458ZM361.577 187.57C361.365 187.533 361.162 187.454 360.979 187.34C359.421 186.359 357.885 185.298 356.416 184.189C356.243 184.059 356.097 183.895 355.987 183.708C355.877 183.521 355.805 183.314 355.775 183.099C355.745 182.885 355.758 182.666 355.812 182.456C355.867 182.246 355.962 182.049 356.093 181.876C356.223 181.703 356.387 181.557 356.574 181.447C356.761 181.337 356.968 181.265 357.182 181.235C357.397 181.205 357.616 181.217 357.826 181.272C358.036 181.326 358.233 181.422 358.406 181.552C359.801 182.606 361.259 183.612 362.739 184.544C363.062 184.748 363.303 185.057 363.424 185.42C363.544 185.782 363.535 186.174 363.399 186.531C363.262 186.887 363.007 187.185 362.676 187.375C362.344 187.564 361.958 187.633 361.581 187.57H361.577ZM410.915 195.675C410.541 195.61 410.201 195.418 409.951 195.131C409.702 194.844 409.559 194.48 409.547 194.101C409.535 193.721 409.653 193.348 409.883 193.046C410.113 192.744 410.441 192.53 410.81 192.44C412.505 192.032 414.207 191.544 415.875 190.993C416.081 190.925 416.298 190.897 416.515 190.913C416.731 190.928 416.942 190.986 417.136 191.084C417.33 191.181 417.503 191.315 417.645 191.479C417.787 191.643 417.895 191.834 417.964 192.039C418.032 192.245 418.059 192.462 418.044 192.679C418.028 192.895 417.97 193.106 417.873 193.3C417.776 193.494 417.642 193.667 417.478 193.809C417.314 193.951 417.123 194.059 416.917 194.128C415.168 194.707 413.376 195.223 411.59 195.653C411.369 195.707 411.14 195.714 410.917 195.675H410.915ZM424.231 190.86C423.887 190.8 423.571 190.633 423.328 190.383C423.085 190.133 422.928 189.813 422.878 189.467C422.828 189.122 422.889 188.77 423.051 188.462C423.214 188.153 423.469 187.904 423.782 187.75C425.352 186.977 426.908 186.13 428.413 185.231C428.789 185.006 429.239 184.939 429.664 185.045C430.089 185.151 430.454 185.422 430.68 185.797C430.905 186.173 430.972 186.623 430.866 187.048C430.76 187.473 430.489 187.838 430.114 188.064C428.536 189.01 426.899 189.902 425.248 190.714C424.934 190.872 424.578 190.925 424.232 190.866L424.231 190.86ZM436.177 183.257C435.863 183.203 435.572 183.06 435.338 182.844C435.104 182.628 434.938 182.35 434.858 182.042C434.779 181.734 434.79 181.409 434.891 181.108C434.992 180.806 435.177 180.54 435.425 180.341C436.79 179.244 438.125 178.079 439.391 176.876C439.548 176.724 439.733 176.604 439.936 176.524C440.139 176.444 440.356 176.405 440.575 176.409C440.793 176.414 441.008 176.461 441.208 176.55C441.408 176.638 441.588 176.765 441.739 176.923C441.889 177.081 442.007 177.268 442.085 177.472C442.162 177.676 442.199 177.893 442.192 178.112C442.185 178.33 442.136 178.545 442.045 178.743C441.955 178.942 441.826 179.121 441.666 179.27C440.335 180.536 438.931 181.764 437.494 182.917C437.311 183.066 437.099 183.174 436.871 183.233C436.643 183.293 436.406 183.303 436.174 183.263L436.177 183.257ZM446.18 173.23C445.897 173.182 445.632 173.06 445.41 172.878C445.188 172.695 445.018 172.458 444.916 172.19C444.813 171.922 444.783 171.631 444.827 171.347C444.871 171.064 444.988 170.796 445.167 170.572C446.26 169.204 447.306 167.775 448.276 166.322C448.396 166.142 448.551 165.987 448.732 165.866C448.912 165.745 449.115 165.661 449.327 165.619C449.54 165.576 449.76 165.576 449.972 165.619C450.185 165.661 450.388 165.745 450.568 165.865C450.749 165.986 450.904 166.14 451.025 166.321C451.145 166.501 451.229 166.704 451.272 166.917C451.314 167.129 451.315 167.349 451.272 167.562C451.23 167.774 451.146 167.977 451.026 168.158C450.004 169.689 448.903 171.197 447.752 172.634C447.569 172.868 447.326 173.048 447.048 173.155C446.771 173.262 446.47 173.292 446.177 173.242L446.18 173.23ZM453.741 161.248C453.489 161.204 453.25 161.103 453.044 160.951C452.838 160.8 452.669 160.602 452.552 160.374C452.436 160.146 452.373 159.895 452.37 159.639C452.367 159.383 452.424 159.13 452.535 158.899C453.297 157.327 454.001 155.704 454.63 154.071C454.707 153.868 454.824 153.683 454.974 153.526C455.123 153.369 455.302 153.242 455.5 153.154C455.699 153.066 455.912 153.018 456.129 153.012C456.346 153.007 456.562 153.044 456.764 153.122C456.967 153.199 457.152 153.316 457.309 153.466C457.467 153.615 457.593 153.794 457.681 153.992C457.769 154.191 457.818 154.404 457.823 154.621C457.829 154.838 457.792 155.054 457.714 155.256C457.052 156.976 456.31 158.686 455.508 160.341C455.352 160.664 455.095 160.929 454.776 161.094C454.457 161.258 454.092 161.315 453.738 161.254L453.741 161.248ZM458.481 147.907C458.447 147.901 458.414 147.894 458.381 147.885C458.17 147.835 457.971 147.744 457.795 147.618C457.619 147.491 457.47 147.33 457.356 147.146C457.242 146.961 457.165 146.756 457.131 146.542C457.096 146.328 457.104 146.109 457.154 145.898C457.443 144.645 457.711 143.368 457.929 142.1C458.009 141.643 458.083 141.184 458.152 140.727C458.184 140.512 458.259 140.306 458.371 140.12C458.483 139.934 458.63 139.772 458.805 139.643C458.98 139.514 459.178 139.421 459.389 139.368C459.6 139.316 459.819 139.306 460.034 139.339C460.25 139.369 460.457 139.441 460.645 139.553C460.832 139.664 460.995 139.812 461.124 139.987C461.254 140.162 461.347 140.362 461.398 140.574C461.449 140.786 461.457 141.005 461.422 141.22C461.349 141.703 461.272 142.185 461.189 142.668C460.959 144.001 460.684 145.344 460.371 146.662C460.275 147.073 460.026 147.432 459.674 147.665C459.322 147.898 458.894 147.987 458.478 147.914L458.481 147.907Z" fill="#91B3FA"/>
<path opacity="0.3" d="M350.471 178.713C350.137 178.655 349.828 178.495 349.588 178.255C348.954 177.624 348.322 176.967 347.706 176.303C347.409 175.981 347.252 175.554 347.269 175.117C347.287 174.679 347.477 174.266 347.799 173.969C348.121 173.671 348.548 173.514 348.986 173.531C349.423 173.549 349.836 173.739 350.134 174.061C350.712 174.692 351.316 175.316 351.917 175.915C352.166 176.163 352.329 176.483 352.383 176.83C352.438 177.177 352.38 177.533 352.219 177.844C352.057 178.156 351.801 178.409 351.486 178.565C351.171 178.721 350.815 178.773 350.469 178.713H350.471Z" fill="#91B3FA"/>
</g>
<path d="M355.931 160.216C356.01 160.356 356.131 160.469 356.276 160.537C356.422 160.605 356.585 160.626 356.743 160.597L365.987 158.904C368.998 162.181 372.522 164.946 376.422 167.09L376.985 176.464C376.995 176.624 377.054 176.778 377.155 176.903C377.256 177.028 377.393 177.118 377.548 177.161L388.403 180.192C388.558 180.235 388.722 180.228 388.873 180.174C389.024 180.119 389.154 180.019 389.245 179.887L394.58 172.158C399.028 172.345 403.477 171.804 407.75 170.557L414.781 176.794C414.902 176.9 415.052 176.967 415.212 176.984C415.372 177 415.533 176.967 415.673 176.888L425.493 171.353C425.633 171.274 425.745 171.154 425.813 171.008C425.881 170.863 425.902 170.699 425.874 170.541L424.18 161.297C427.457 158.287 430.222 154.762 432.365 150.862L441.74 150.299C441.901 150.29 442.054 150.231 442.179 150.13C442.304 150.029 442.395 149.891 442.438 149.736L445.467 138.882C445.51 138.727 445.504 138.562 445.45 138.411C445.395 138.26 445.294 138.129 445.162 138.038L437.433 132.703C437.622 128.256 437.084 123.807 435.841 119.533L442.076 112.502C442.183 112.382 442.249 112.231 442.267 112.071C442.284 111.912 442.25 111.75 442.172 111.61L436.636 101.79C436.557 101.651 436.437 101.539 436.291 101.47C436.146 101.402 435.983 101.381 435.825 101.41L426.581 103.105C423.571 99.8266 420.047 97.0617 416.146 94.9187L415.575 85.5359C415.565 85.3755 415.505 85.2221 415.405 85.0971C415.304 84.9721 415.166 84.8816 415.012 84.8383L404.157 81.8091C404.002 81.7657 403.838 81.7719 403.687 81.8266C403.536 81.8814 403.405 81.982 403.315 82.1144L397.978 89.843C393.53 89.6566 389.082 90.1968 384.808 91.4423L377.774 85.2117C377.654 85.1052 377.503 85.0388 377.344 85.0217C377.184 85.0046 377.023 85.0376 376.883 85.1161L367.064 90.652C366.924 90.731 366.812 90.8516 366.744 90.9972C366.676 91.1427 366.655 91.3059 366.683 91.464L368.377 100.706C365.099 103.717 362.334 107.241 360.191 111.141L350.817 111.704C350.656 111.714 350.503 111.774 350.378 111.874C350.253 111.975 350.162 112.113 350.119 112.267L347.09 123.122C347.047 123.277 347.053 123.441 347.107 123.592C347.162 123.743 347.262 123.873 347.394 123.964L355.124 129.301C354.935 133.748 355.472 138.197 356.716 142.471L350.493 149.506C350.386 149.626 350.319 149.777 350.302 149.937C350.285 150.097 350.318 150.258 350.397 150.398L355.931 160.216Z" fill="#91B3FA"/>
<path d="M394.343 142.164C391.451 141.665 388.865 140.063 387.129 137.696C385.394 135.329 384.643 132.382 385.036 129.473C385.429 126.565 386.935 123.922 389.236 122.101C391.538 120.279 394.456 119.421 397.377 119.707C400.298 119.993 402.994 121.401 404.899 123.634C406.804 125.867 407.768 128.752 407.59 131.681C407.411 134.611 406.103 137.357 403.942 139.342C401.78 141.328 398.933 142.397 395.998 142.326C395.443 142.312 394.89 142.258 394.343 142.164ZM397.779 122.442C397.355 122.369 396.926 122.327 396.496 122.316C394.257 122.264 392.085 123.081 390.437 124.597C388.788 126.113 387.791 128.209 387.655 130.444C387.519 132.68 388.256 134.881 389.709 136.585C391.162 138.289 393.219 139.363 395.448 139.582C397.677 139.801 399.904 139.147 401.661 137.758C403.418 136.369 404.568 134.354 404.87 132.134C405.172 129.915 404.601 127.666 403.279 125.858C401.957 124.051 399.985 122.826 397.779 122.442Z" fill="#BDD0FB"/>
<path d="M391.782 158.335C390.841 158.172 389.909 157.962 388.989 157.705C388.7 157.624 388.41 157.537 388.121 157.447C386.699 157.001 385.316 156.443 383.983 155.777L383.929 155.75L383.776 155.672L383.478 155.517C383.354 155.452 383.255 155.35 383.193 155.224C383.132 155.099 383.111 154.958 383.135 154.821C383.147 154.752 383.169 154.686 383.201 154.624C383.242 154.547 383.297 154.479 383.364 154.424C383.43 154.368 383.507 154.327 383.59 154.301C383.673 154.275 383.76 154.266 383.846 154.274C383.932 154.282 384.016 154.307 384.093 154.347C387.803 156.299 391.922 157.344 396.114 157.399C400.306 157.453 404.451 156.514 408.211 154.66C411.97 152.805 415.237 150.088 417.745 146.728C420.253 143.369 421.931 139.464 422.64 135.333C423.744 128.86 422.41 122.208 418.895 116.662C415.381 111.115 409.935 107.068 403.611 105.303C389.51 101.369 374.849 109.638 370.917 123.731C370.675 124.598 370.477 125.476 370.323 126.362C369.661 130.192 369.85 134.12 370.876 137.868C370.903 137.953 370.912 138.043 370.903 138.131C370.895 138.22 370.868 138.305 370.826 138.384C370.783 138.462 370.725 138.53 370.655 138.585C370.586 138.641 370.505 138.681 370.42 138.705C370.334 138.728 370.244 138.734 370.156 138.722C370.068 138.71 369.983 138.68 369.907 138.635C369.83 138.589 369.764 138.529 369.711 138.457C369.659 138.385 369.621 138.304 369.601 138.217C368.275 133.357 368.29 128.229 369.643 123.377C373.772 108.578 389.174 99.9015 403.967 104.029C410.606 105.884 416.321 110.133 420.01 115.956C423.698 121.778 425.099 128.761 423.94 135.556C423.777 136.498 423.566 137.432 423.309 138.353C421.455 144.993 417.205 150.709 411.381 154.398C405.558 158.087 398.573 159.487 391.778 158.326L391.782 158.335Z" fill="#BDD0FB"/>
<g opacity="0.3">
<path opacity="0.3" d="M268.697 162.198C268.479 162.161 268.279 162.054 268.128 161.894C267.976 161.733 267.882 161.527 267.858 161.308C267.759 160.448 267.684 159.571 267.638 158.702C267.623 158.432 267.716 158.167 267.897 157.966C268.077 157.764 268.331 157.643 268.601 157.628C268.871 157.613 269.136 157.706 269.338 157.887C269.539 158.068 269.661 158.321 269.676 158.591C269.72 159.416 269.79 160.251 269.885 161.072C269.905 161.23 269.887 161.39 269.833 161.54C269.78 161.689 269.691 161.824 269.575 161.934C269.46 162.043 269.32 162.123 269.167 162.168C269.015 162.214 268.854 162.222 268.697 162.193V162.198Z" fill="#91B3FA"/>
<path opacity="0.3" d="M268.521 154.35C268.272 154.309 268.047 154.175 267.891 153.976C267.735 153.777 267.659 153.527 267.678 153.275C267.782 151.781 267.962 150.293 268.217 148.817C268.27 148.509 268.328 148.199 268.388 147.89C268.447 147.628 268.604 147.4 268.827 147.25C269.049 147.1 269.32 147.04 269.584 147.082C269.85 147.134 270.084 147.288 270.236 147.513C270.387 147.737 270.443 148.012 270.392 148.278C270.334 148.575 270.28 148.871 270.229 149.166C269.985 150.573 269.813 151.991 269.713 153.415C269.704 153.549 269.669 153.68 269.609 153.8C269.549 153.92 269.467 154.027 269.366 154.115C269.264 154.203 269.147 154.27 269.02 154.313C268.893 154.356 268.759 154.373 268.625 154.363L268.521 154.35ZM270.547 143.952C270.498 143.943 270.45 143.931 270.402 143.917C270.145 143.833 269.931 143.65 269.808 143.409C269.685 143.168 269.663 142.888 269.747 142.63C270.307 140.907 270.972 139.22 271.738 137.578C271.853 137.332 272.061 137.143 272.316 137.051C272.571 136.959 272.852 136.972 273.097 137.087C273.342 137.202 273.532 137.41 273.624 137.665C273.716 137.92 273.703 138.201 273.588 138.446C272.856 140.012 272.222 141.622 271.687 143.266C271.611 143.497 271.454 143.694 271.244 143.82C271.035 143.946 270.788 143.993 270.547 143.952ZM275.034 134.355C274.903 134.33 274.777 134.281 274.664 134.21C274.436 134.065 274.274 133.836 274.214 133.572C274.154 133.308 274.201 133.031 274.345 132.802C275.311 131.268 276.371 129.795 277.519 128.392C277.603 128.288 277.708 128.202 277.826 128.138C277.944 128.075 278.073 128.035 278.206 128.022C278.34 128.009 278.474 128.022 278.603 128.06C278.731 128.099 278.851 128.162 278.954 128.247C279.058 128.332 279.144 128.436 279.208 128.554C279.271 128.672 279.311 128.802 279.324 128.935C279.337 129.068 279.324 129.203 279.286 129.331C279.247 129.459 279.184 129.579 279.099 129.683C278.004 131.021 276.994 132.426 276.073 133.89C275.965 134.062 275.808 134.198 275.623 134.281C275.438 134.363 275.232 134.389 275.032 134.355H275.034ZM281.743 126.153C281.557 126.122 281.383 126.04 281.241 125.915C281.099 125.791 280.994 125.629 280.939 125.449C280.884 125.268 280.881 125.076 280.929 124.893C280.978 124.711 281.076 124.546 281.214 124.416C282.526 123.166 283.914 121.998 285.37 120.918C285.478 120.838 285.6 120.78 285.73 120.748C285.86 120.715 285.995 120.709 286.128 120.729C286.26 120.748 286.388 120.794 286.502 120.863C286.617 120.932 286.717 121.023 286.797 121.131C286.877 121.238 286.935 121.361 286.967 121.491C287 121.621 287.006 121.756 286.986 121.888C286.967 122.021 286.921 122.148 286.852 122.263C286.783 122.378 286.692 122.478 286.584 122.558C285.197 123.585 283.873 124.697 282.622 125.886C282.506 125.997 282.367 126.079 282.214 126.125C282.061 126.171 281.899 126.181 281.742 126.153H281.743ZM290.25 119.837C290.04 119.805 289.846 119.708 289.694 119.559C289.542 119.411 289.44 119.218 289.404 119.009C289.367 118.8 289.398 118.584 289.49 118.393C289.583 118.202 289.734 118.045 289.92 117.944C291.496 117.051 293.125 116.255 294.798 115.56C294.921 115.509 295.054 115.482 295.188 115.482C295.321 115.482 295.454 115.508 295.578 115.559C295.701 115.61 295.814 115.685 295.909 115.779C296.003 115.874 296.079 115.986 296.13 116.109C296.181 116.233 296.208 116.365 296.208 116.499C296.208 116.633 296.182 116.765 296.131 116.889C296.08 117.013 296.006 117.125 295.911 117.22C295.817 117.315 295.704 117.39 295.581 117.441C293.984 118.104 292.43 118.864 290.926 119.717C290.722 119.834 290.483 119.877 290.25 119.837ZM300.031 115.784C299.797 115.752 299.582 115.639 299.423 115.465C299.263 115.291 299.17 115.067 299.158 114.831C299.146 114.595 299.217 114.363 299.359 114.174C299.5 113.985 299.703 113.851 299.933 113.796C301.678 113.312 303.452 112.938 305.244 112.674C305.377 112.655 305.513 112.662 305.643 112.696C305.773 112.729 305.896 112.788 306.003 112.868C306.111 112.949 306.201 113.05 306.27 113.166C306.338 113.281 306.383 113.409 306.402 113.542C306.421 113.676 306.414 113.811 306.381 113.941C306.347 114.071 306.289 114.194 306.208 114.301C306.127 114.409 306.026 114.499 305.911 114.568C305.795 114.636 305.667 114.681 305.534 114.7C303.825 114.952 302.133 115.309 300.468 115.77C300.325 115.806 300.176 115.811 300.031 115.784ZM310.505 114.243C310.237 114.223 309.987 114.097 309.811 113.893C309.635 113.688 309.548 113.423 309.568 113.154C309.588 112.885 309.714 112.635 309.919 112.46C310.123 112.284 310.389 112.197 310.657 112.217C312.469 112.177 314.282 112.249 316.085 112.432C316.341 112.475 316.571 112.613 316.729 112.819C316.887 113.026 316.96 113.284 316.933 113.543C316.907 113.801 316.783 114.04 316.587 114.21C316.391 114.38 316.137 114.469 315.878 114.459C314.158 114.284 312.43 114.214 310.702 114.252C310.636 114.255 310.57 114.252 310.505 114.242V114.243ZM326.136 116.813C326.076 116.804 326.018 116.789 325.961 116.767C324.548 116.256 323.108 115.822 321.648 115.464C321.427 115.409 321.214 115.357 320.99 115.308C320.726 115.248 320.497 115.085 320.353 114.856C320.209 114.627 320.161 114.351 320.221 114.087C320.25 113.956 320.304 113.831 320.381 113.722C320.458 113.612 320.557 113.518 320.67 113.446C320.784 113.375 320.91 113.326 321.043 113.304C321.175 113.282 321.31 113.286 321.441 113.317C321.674 113.37 321.906 113.425 322.137 113.483C323.667 113.858 325.175 114.313 326.656 114.848C326.916 114.917 327.139 115.086 327.274 115.319C327.409 115.552 327.447 115.829 327.378 116.09C327.309 116.35 327.139 116.573 326.907 116.708C326.674 116.843 326.397 116.881 326.136 116.812V116.813Z" fill="#91B3FA"/>
</g>
<g opacity="0.3">
<path opacity="0.3" d="M304.735 199.808C304.602 199.786 304.476 199.739 304.362 199.668C304.248 199.597 304.15 199.504 304.072 199.395C303.994 199.286 303.938 199.163 303.908 199.033C303.877 198.902 303.873 198.767 303.895 198.635C303.917 198.502 303.965 198.376 304.036 198.262C304.107 198.148 304.199 198.05 304.308 197.972C304.417 197.894 304.54 197.838 304.671 197.808C304.801 197.778 304.937 197.773 305.069 197.795C306.746 198.063 308.437 198.229 310.134 198.292C310.268 198.297 310.4 198.328 310.522 198.384C310.644 198.44 310.754 198.519 310.845 198.617C310.936 198.715 311.007 198.831 311.054 198.956C311.101 199.082 311.122 199.216 311.117 199.35C311.112 199.484 311.081 199.615 311.025 199.737C310.969 199.859 310.89 199.969 310.792 200.06C310.693 200.151 310.578 200.222 310.452 200.269C310.327 200.316 310.193 200.337 310.059 200.332C308.278 200.265 306.503 200.091 304.743 199.81L304.735 199.808ZM299.637 198.677C299.601 198.67 299.565 198.662 299.53 198.652C297.816 198.163 296.133 197.571 294.489 196.881C294.24 196.776 294.042 196.576 293.94 196.325C293.838 196.074 293.839 195.793 293.944 195.544C294.049 195.294 294.249 195.097 294.5 194.995C294.75 194.893 295.031 194.894 295.281 194.999C296.849 195.658 298.455 196.223 300.09 196.691C300.353 196.751 300.582 196.913 300.726 197.142C300.87 197.371 300.917 197.647 300.857 197.91C300.796 198.174 300.634 198.402 300.406 198.546C300.177 198.69 299.901 198.737 299.637 198.677ZM315.145 200.192C314.876 200.18 314.623 200.063 314.441 199.865C314.259 199.666 314.164 199.404 314.175 199.135C314.187 198.867 314.305 198.614 314.503 198.432C314.701 198.25 314.963 198.154 315.232 198.166C316.926 198.02 318.61 197.771 320.274 197.422C320.539 197.366 320.815 197.418 321.042 197.566C321.268 197.715 321.426 197.946 321.482 198.211C321.537 198.476 321.485 198.752 321.337 198.979C321.189 199.205 320.957 199.364 320.692 199.419C318.948 199.785 317.183 200.046 315.407 200.199C315.32 200.208 315.232 200.205 315.145 200.192ZM290.031 194.629C289.914 194.608 289.802 194.567 289.699 194.508C288.152 193.62 286.66 192.638 285.232 191.569C285.125 191.489 285.035 191.388 284.966 191.273C284.898 191.157 284.853 191.03 284.834 190.897C284.815 190.764 284.823 190.629 284.856 190.499C284.889 190.37 284.948 190.248 285.028 190.14C285.109 190.033 285.209 189.943 285.325 189.875C285.44 189.806 285.568 189.762 285.7 189.743C285.833 189.724 285.968 189.731 286.098 189.764C286.227 189.798 286.349 189.856 286.457 189.936C287.817 190.956 289.239 191.892 290.713 192.738C290.932 192.851 291.102 193.039 291.192 193.268C291.282 193.497 291.286 193.751 291.203 193.983C291.119 194.214 290.954 194.408 290.739 194.526C290.523 194.645 290.272 194.682 290.031 194.629ZM325.345 198.049C325.117 198.016 324.907 197.907 324.75 197.739C324.592 197.572 324.496 197.355 324.478 197.126C324.46 196.896 324.52 196.667 324.649 196.476C324.779 196.286 324.969 196.145 325.189 196.077C326.798 195.528 328.372 194.882 329.903 194.144C330.147 194.026 330.427 194.01 330.683 194.099C330.938 194.188 331.148 194.375 331.266 194.619C331.383 194.863 331.399 195.143 331.31 195.399C331.221 195.654 331.034 195.864 330.79 195.982C329.185 196.756 327.534 197.432 325.848 198.008C325.684 198.064 325.51 198.078 325.34 198.049H325.345ZM334.728 193.521C334.523 193.49 334.333 193.396 334.183 193.253C334.033 193.11 333.93 192.924 333.889 192.721C333.848 192.518 333.87 192.307 333.952 192.117C334.035 191.926 334.174 191.766 334.351 191.657C335.781 190.738 337.156 189.734 338.467 188.651C338.57 188.566 338.689 188.501 338.817 188.462C338.945 188.422 339.08 188.408 339.213 188.421C339.347 188.433 339.476 188.472 339.595 188.535C339.713 188.597 339.818 188.683 339.904 188.786C339.989 188.889 340.054 189.008 340.093 189.136C340.133 189.264 340.147 189.399 340.134 189.532C340.122 189.666 340.083 189.795 340.02 189.914C339.958 190.032 339.872 190.137 339.769 190.223C338.395 191.359 336.955 192.412 335.455 193.375C335.238 193.515 334.976 193.568 334.723 193.521H334.728ZM342.758 186.877C342.576 186.845 342.407 186.764 342.267 186.644C342.127 186.523 342.023 186.367 341.965 186.192C341.907 186.017 341.897 185.829 341.937 185.649C341.977 185.469 342.065 185.303 342.192 185.169C343.362 183.935 344.455 182.63 345.466 181.261C345.627 181.044 345.868 180.899 346.135 180.859C346.403 180.819 346.676 180.887 346.894 181.048C347.111 181.209 347.256 181.45 347.296 181.718C347.336 181.985 347.268 182.258 347.107 182.476C346.046 183.909 344.899 185.277 343.673 186.571C343.556 186.695 343.411 186.788 343.25 186.841C343.088 186.894 342.916 186.907 342.749 186.877H342.758Z" fill="#91B3FA"/>
<path opacity="0.3" d="M281.656 188.346C281.455 188.311 281.269 188.216 281.122 188.075C280.494 187.47 279.879 186.844 279.297 186.213C279.206 186.114 279.135 185.999 279.089 185.873C279.043 185.747 279.021 185.613 279.027 185.48C279.032 185.346 279.064 185.214 279.12 185.092C279.176 184.971 279.256 184.861 279.354 184.77C279.452 184.679 279.568 184.609 279.694 184.562C279.819 184.516 279.953 184.495 280.087 184.5C280.221 184.505 280.352 184.537 280.474 184.593C280.596 184.649 280.705 184.729 280.796 184.827C281.351 185.43 281.937 186.027 282.533 186.605C282.689 186.757 282.792 186.954 282.827 187.169C282.863 187.383 282.829 187.603 282.73 187.797C282.632 187.991 282.474 188.148 282.28 188.246C282.086 188.344 281.866 188.378 281.652 188.341L281.656 188.346Z" fill="#91B3FA"/>
</g>
<path d="M284.738 175.501C284.79 175.595 284.871 175.67 284.968 175.716C285.065 175.762 285.175 175.776 285.28 175.756L291.466 174.623C293.48 176.816 295.838 178.666 298.448 180.101L298.824 186.373C298.831 186.481 298.871 186.583 298.938 186.667C299.006 186.75 299.098 186.811 299.202 186.839L306.466 188.865C306.569 188.895 306.68 188.891 306.781 188.854C306.882 188.818 306.969 188.75 307.03 188.661L310.601 183.49C313.576 183.615 316.552 183.253 319.41 182.419L324.116 186.592C324.196 186.663 324.297 186.708 324.404 186.719C324.511 186.731 324.618 186.708 324.712 186.655L331.283 182.952C331.376 182.899 331.451 182.819 331.497 182.721C331.543 182.624 331.557 182.515 331.537 182.409L330.404 176.223C332.598 174.209 334.448 171.85 335.882 169.24L342.155 168.864C342.262 168.858 342.365 168.818 342.448 168.75C342.532 168.683 342.592 168.591 342.621 168.488L344.647 161.222C344.676 161.118 344.672 161.008 344.636 160.907C344.599 160.806 344.532 160.719 344.443 160.658L339.276 157.09C339.401 154.114 339.039 151.138 338.205 148.279L342.378 143.574C342.449 143.493 342.494 143.393 342.505 143.286C342.517 143.179 342.494 143.071 342.441 142.978L338.738 136.407C338.685 136.313 338.604 136.239 338.507 136.193C338.41 136.148 338.301 136.133 338.195 136.152L332.009 137.287C329.995 135.093 327.636 133.243 325.026 131.809L324.65 125.535C324.643 125.428 324.603 125.325 324.536 125.242C324.469 125.158 324.377 125.098 324.273 125.069L317.008 123.042C316.904 123.014 316.794 123.018 316.693 123.054C316.592 123.091 316.505 123.158 316.444 123.247L312.875 128.419C309.899 128.294 306.923 128.655 304.063 129.489L299.36 125.316C299.279 125.245 299.178 125.201 299.071 125.189C298.964 125.178 298.856 125.2 298.762 125.252L292.191 128.958C292.098 129.01 292.023 129.091 291.977 129.188C291.932 129.286 291.917 129.395 291.936 129.5L293.07 135.686C290.877 137.7 289.027 140.059 287.593 142.668L281.319 143.044C281.212 143.051 281.109 143.091 281.026 143.159C280.942 143.226 280.882 143.318 280.853 143.422L278.827 150.686C278.798 150.789 278.802 150.899 278.839 151.001C278.875 151.102 278.942 151.189 279.031 151.25L284.204 154.821C284.079 157.796 284.44 160.772 285.273 163.63L281.095 168.334C281.024 168.415 280.979 168.515 280.968 168.622C280.956 168.729 280.979 168.837 281.031 168.93L284.738 175.501Z" fill="#91B3FA"/>
<path d="M310.405 163.558C308.43 163.216 306.665 162.122 305.481 160.505C304.296 158.889 303.785 156.876 304.054 154.89C304.322 152.904 305.351 151.099 306.923 149.856C308.494 148.613 310.487 148.027 312.481 148.223C314.476 148.418 316.317 149.379 317.618 150.904C318.918 152.429 319.577 154.398 319.455 156.399C319.334 158.399 318.441 160.274 316.966 161.63C315.49 162.986 313.546 163.717 311.542 163.67C311.161 163.66 310.781 163.622 310.405 163.558ZM312.706 150.36C312.431 150.314 312.154 150.286 311.875 150.278C310.37 150.24 308.911 150.803 307.82 151.841C306.73 152.879 306.096 154.308 306.059 155.814C306.021 157.319 306.584 158.778 307.622 159.869C308.66 160.959 310.089 161.593 311.595 161.63C313.028 161.666 314.421 161.158 315.495 160.208C316.57 159.259 317.245 157.938 317.385 156.512C317.526 155.085 317.122 153.658 316.254 152.517C315.386 151.376 314.119 150.605 312.706 150.36Z" fill="#BDD0FB"/>
<path d="M308.609 174.808C306.674 174.474 304.802 173.847 303.056 172.95L302.899 172.868C302.66 172.743 302.48 172.527 302.4 172.268C302.32 172.01 302.345 171.73 302.471 171.491C302.597 171.251 302.813 171.071 303.071 170.991C303.33 170.911 303.609 170.936 303.849 171.062C304.931 171.632 306.072 172.084 307.25 172.411L307.444 172.465C310.194 173.208 313.087 173.249 315.857 172.583C317.363 172.22 318.813 171.656 320.169 170.906L320.202 170.889L320.305 170.831C322.272 169.727 324.001 168.244 325.393 166.468C326.784 164.691 327.809 162.657 328.41 160.483C328.569 159.909 328.698 159.334 328.797 158.757C329.229 156.223 329.087 153.623 328.38 151.151C327.674 148.678 326.421 146.396 324.715 144.472C323.009 142.548 320.893 141.032 318.523 140.035C316.153 139.038 313.589 138.585 311.021 138.711C308.453 138.837 305.945 139.537 303.684 140.761C301.422 141.985 299.465 143.7 297.954 145.782C296.444 147.863 295.421 150.257 294.959 152.786C294.497 155.316 294.609 157.917 295.287 160.397C295.322 160.526 295.332 160.661 295.315 160.794C295.298 160.927 295.256 161.056 295.189 161.172C295.123 161.289 295.034 161.391 294.929 161.473C294.823 161.555 294.702 161.616 294.572 161.651C294.443 161.687 294.308 161.696 294.175 161.68C294.042 161.663 293.914 161.62 293.798 161.554C293.681 161.487 293.579 161.399 293.497 161.293C293.414 161.187 293.354 161.066 293.318 160.937C292.575 158.222 292.438 155.377 292.917 152.603C293.029 151.964 293.172 151.327 293.352 150.699C294.675 145.952 297.77 141.895 301.999 139.365C306.228 136.836 311.266 136.026 316.074 137.105C320.882 138.183 325.093 141.067 327.835 145.161C330.578 149.254 331.644 154.245 330.813 159.102C330.702 159.746 330.557 160.39 330.379 161.03C327.709 170.605 318.2 176.465 308.609 174.808Z" fill="#BDD0FB"/>
<path d="M84.5288 400.249C84.5337 401.705 85.115 403.1 86.1456 404.129C87.1762 405.158 88.5722 405.737 90.0285 405.74H387.303C388.759 405.737 390.155 405.158 391.186 404.129C392.216 403.1 392.797 401.705 392.803 400.249L395.276 229.416C395.276 226.395 391.717 220.499 385.194 220.942L94.6613 213.425C92.785 213.375 90.9183 213.707 89.1744 214.401C87.4305 215.095 85.8457 216.136 84.5164 217.461C83.187 218.786 82.1407 220.367 81.441 222.109C80.7413 223.85 80.4027 225.716 80.4459 227.592L84.5288 400.249Z" fill="url(#paint14_linear_202:2249)"/>
<path d="M89.9558 394.979C89.9588 396.358 90.5077 397.678 91.4823 398.653C92.4569 399.627 93.7778 400.175 95.1559 400.178H380.129C381.507 400.175 382.828 399.627 383.803 398.652C384.778 397.677 385.326 396.355 385.329 394.977L387.663 239.894C387.388 230.561 379.207 227.207 374.247 227.406L95.8028 219.938C94.484 219.903 93.1718 220.137 91.9462 220.625C90.7205 221.113 89.6069 221.846 88.6729 222.778C87.7389 223.709 87.0041 224.821 86.5131 226.046C86.022 227.27 85.785 228.582 85.8165 229.901L89.9558 394.979Z" fill="url(#paint15_linear_202:2249)"/>
<path d="M382.248 321.3H382.236C382.136 321.299 382.037 321.278 381.945 321.238C381.853 321.198 381.77 321.141 381.7 321.069C381.63 320.997 381.575 320.912 381.538 320.819C381.502 320.726 381.483 320.626 381.485 320.526L381.67 307.949C381.673 307.749 381.754 307.558 381.897 307.417C382.039 307.277 382.231 307.198 382.431 307.198H382.439C382.539 307.199 382.638 307.22 382.731 307.259C382.823 307.299 382.906 307.356 382.976 307.428C383.046 307.5 383.102 307.585 383.139 307.679C383.176 307.772 383.194 307.872 383.193 307.972L383.009 320.549C383.006 320.749 382.925 320.94 382.782 321.081C382.64 321.222 382.448 321.3 382.248 321.3Z" fill="#7D97F4"/>
<path d="M382.695 290.485C382.595 290.483 382.496 290.462 382.404 290.422C382.311 290.383 382.228 290.325 382.158 290.253C382.089 290.181 382.034 290.096 381.997 290.003C381.96 289.91 381.942 289.81 381.944 289.71L382.65 241.54C382.637 238.679 381.769 236.395 380.069 234.765C376.895 231.726 371.857 231.881 371.646 231.891L282.65 229.504C282.55 229.502 282.452 229.48 282.36 229.439C282.269 229.398 282.186 229.34 282.117 229.267C282.048 229.195 281.994 229.109 281.958 229.016C281.922 228.922 281.905 228.823 281.908 228.723C281.905 228.621 281.924 228.52 281.963 228.426C282.002 228.332 282.06 228.247 282.134 228.177C282.208 228.107 282.296 228.054 282.392 228.02C282.488 227.986 282.59 227.973 282.691 227.982L371.635 230.368C372.187 230.335 377.551 230.242 381.123 233.665C383.133 235.59 384.162 238.243 384.175 241.549L383.468 289.733C383.466 289.833 383.445 289.932 383.406 290.024C383.366 290.116 383.309 290.199 383.237 290.269C383.165 290.339 383.08 290.394 382.987 290.431C382.894 290.468 382.795 290.486 382.695 290.485Z" fill="#7D97F4"/>
<path d="M61.23 419.921L410.063 419.921C410.515 419.921 410.881 419.555 410.881 419.103V405.728C410.881 405.277 410.515 404.911 410.063 404.911L61.23 404.911C60.7784 404.911 60.4123 405.277 60.4123 405.728V419.103C60.4123 419.555 60.7784 419.921 61.23 419.921Z" fill="url(#paint16_linear_202:2249)"/>
<path d="M113.505 273.44V279.743H205.527V273.44H113.505Z" fill="#7D97F4"/>
<path d="M113.071 231.313V237.616H205.093V231.313H113.071Z" fill="#7D97F4"/>
<path d="M139.013 242.097V248.4H205.368V242.097H139.013Z" fill="#7D97F4"/>
<path d="M124.972 241.594V247.896H134.521V241.594H124.972Z" fill="#7D97F4"/>
<path d="M138.948 252.632V258.935H205.303V252.632H138.948Z" fill="#7D97F4"/>
<path d="M124.924 252.128V258.431H134.473V252.128H124.924Z" fill="#7D97F4"/>
<path d="M138.704 263.152V269.455H205.058V263.152H138.704Z" fill="#7D97F4"/>
<path d="M124.357 262.647V268.95H133.906V262.647H124.357Z" fill="#7D97F4"/>
<path d="M113.068 317.3V323.603H205.09V317.3H113.068Z" fill="#7D97F4"/>
<path d="M138.579 285.957V292.26H204.934V285.957H138.579Z" fill="#7D97F4"/>
<path d="M124.535 285.452V291.755H134.084V285.452H124.535Z" fill="#7D97F4"/>
<path d="M138.513 296.494V302.797H204.867V296.494H138.513Z" fill="#7D97F4"/>
<path d="M124.488 295.989V302.292H134.038V295.989H124.488Z" fill="#7D97F4"/>
<path d="M138.27 307.011V313.314H204.624V307.011H138.27Z" fill="#7D97F4"/>
<path d="M123.92 306.506V312.809H133.469V306.506H123.92Z" fill="#7D97F4"/>
<path d="M113.068 361.103V367.406H205.09V361.103H113.068Z" fill="#7D97F4"/>
<path d="M138.579 329.761V336.064H204.934V329.761H138.579Z" fill="#7D97F4"/>
<path d="M124.535 329.255V335.558H134.084V329.255H124.535Z" fill="#7D97F4"/>
<path d="M138.511 340.298V346.601H204.866V340.298H138.511Z" fill="#7D97F4"/>
<path d="M124.487 339.791V346.094H134.036V339.791H124.487Z" fill="#7D97F4"/>
<path d="M138.268 350.815V357.118H204.622V350.815H138.268Z" fill="#7D97F4"/>
<path d="M123.92 350.308V356.611H133.469V350.308H123.92Z" fill="#7D97F4"/>
<path d="M139.015 372.527V378.83H205.369V372.527H139.015Z" fill="#7D97F4"/>
<path d="M124.972 372.024V378.327H134.521V372.024H124.972Z" fill="#7D97F4"/>
<path d="M138.49 383.064V389.367H204.844V383.064H138.49Z" fill="#7D97F4"/>
<path d="M124.465 382.56V388.863H134.014V382.56H124.465Z" fill="#7D97F4"/>
<path d="M275.447 351.892V358.28H341.684V351.892H275.447Z" fill="#7D97F4"/>
<path d="M248.503 341.215V347.604H355.969V341.215H248.503Z" fill="#7D97F4"/>
<path d="M282.87 330.551V336.94H369.015V330.551H282.87Z" fill="#7D97F4"/>
<path d="M282.872 319.878V326.267H331.995V319.878H282.872Z" fill="#7D97F4"/>
<path d="M284.012 309.192V315.581H370.05V309.192H284.012Z" fill="#7D97F4"/>
<path d="M276.314 298.53V304.918H349.018V298.53H276.314Z" fill="#7D97F4"/>
<path d="M248.506 287.836V294.224H326.13V287.836H248.506Z" fill="#7D97F4"/>
<path d="M283.154 277.167V283.556H371.717V277.167H283.154Z" fill="#7D97F4"/>
<path d="M283.156 266.493V272.881H372.817V266.493H283.156Z" fill="#7D97F4"/>
<path d="M284.012 255.817V262.206H372.341V255.817H284.012Z" fill="#7D97F4"/>
<path d="M268.024 245.142V251.531H340.383V245.142H268.024Z" fill="#7D97F4"/>
<path d="M222.627 276.899V283.287H241.389V276.899H222.627Z" fill="#7D97F4"/>
<path d="M222.627 287.879V294.268H241.389V287.879H222.627Z" fill="#7D97F4"/>
<path d="M222.627 298.41V304.798H241.389V298.41H222.627Z" fill="#7D97F4"/>
<path d="M222.625 309.124V315.512H241.388V309.124H222.625Z" fill="#7D97F4"/>
<path d="M222.627 320.103V326.492H241.389V320.103H222.627Z" fill="#7D97F4"/>
<path d="M222.625 330.635V337.024H241.388V330.635H222.625Z" fill="#7D97F4"/>
<path d="M223.578 341.133V347.521H242.34V341.133H223.578Z" fill="#7D97F4"/>
<path d="M223.579 352.113V358.502H242.342V352.113H223.579Z" fill="#7D97F4"/>
<path d="M223.578 362.644V369.032H242.34V362.644H223.578Z" fill="#7D97F4"/>
<path d="M223.579 373.387V379.776H242.342V373.387H223.579Z" fill="#7D97F4"/>
<path d="M223.579 384.368V390.756H242.342V384.368H223.579Z" fill="#7D97F4"/>
<path d="M222.625 266.49V272.878H241.388V266.49H222.625Z" fill="#7D97F4"/>
<path d="M222.625 255.822V262.21H241.388V255.822H222.625Z" fill="#7D97F4"/>
<path d="M222.627 245.141V251.529H241.389V245.141H222.627Z" fill="#7D97F4"/>
<path d="M222.625 234.467V240.855H241.388V234.467H222.625Z" fill="#7D97F4"/>
<path d="M248.53 234.476V240.866H338.51C338.51 237.337 335.616 234.476 332.035 234.476H248.53Z" fill="#7D97F4"/>
<path d="M283.727 384.787V391.176H374.464V384.787H283.727Z" fill="#7D97F4"/>
<path d="M283.727 373.79V380.178H372.815V373.79H283.727Z" fill="#7D97F4"/>
<path d="M283.743 363.301V369.689H340.397C340.397 366.161 338.572 363.299 336.32 363.299L283.743 363.301Z" fill="#7D97F4"/>
<path d="M214.136 230.097H214.033C213.555 230.097 213.167 230.485 213.167 230.963V394.619C213.167 395.097 213.555 395.484 214.033 395.484H214.136C214.614 395.484 215.001 395.097 215.001 394.619V230.963C215.001 230.485 214.614 230.097 214.136 230.097Z" fill="#7D97F4"/>
<path d="M343.951 316.235L456.662 436.505C457.78 437.698 458.64 439.109 459.187 440.65C459.734 442.191 459.956 443.829 459.84 445.46C459.723 447.091 459.271 448.68 458.511 450.128C457.751 451.576 456.699 452.851 455.423 453.873L454.537 454.583C453.402 455.492 452.098 456.167 450.701 456.569C449.304 456.972 447.841 457.094 446.396 456.929C444.952 456.764 443.554 456.315 442.284 455.607C441.014 454.9 439.896 453.949 438.995 452.808L336.255 322.8L343.951 316.235Z" fill="url(#paint17_linear_202:2249)"/>
<path opacity="0.5" d="M363.974 288.386C382.708 251.394 367.357 205.941 329.686 186.863C292.015 167.784 246.29 182.305 227.556 219.297C208.822 256.288 224.173 301.741 261.843 320.82C299.514 339.898 345.24 325.377 363.974 288.386Z" fill="white"/>
<path d="M219.858 215.393C199.017 256.556 216.095 307.131 258.017 328.357C299.94 349.583 350.815 333.423 371.657 292.262C392.5 251.101 375.42 200.522 333.498 179.296C291.576 158.07 240.7 174.23 219.858 215.393ZM231.002 221.038C248.783 185.922 292.189 172.133 327.951 190.242C363.712 208.351 378.286 251.499 360.505 286.615C342.723 321.73 299.317 335.517 263.556 317.409C227.795 299.3 213.225 256.155 231.006 221.039L231.002 221.038Z" fill="url(#paint18_linear_202:2249)"/>
<path d="M361.349 298.242C361.301 298.21 361.268 298.16 361.256 298.103C361.245 298.046 361.257 297.988 361.289 297.94C362.396 296.306 363.46 294.611 364.436 292.887C364.449 292.86 364.467 292.836 364.49 292.817C364.513 292.798 364.539 292.783 364.567 292.774C364.596 292.765 364.626 292.762 364.656 292.766C364.685 292.769 364.714 292.778 364.74 292.793C364.766 292.808 364.789 292.828 364.807 292.852C364.825 292.875 364.837 292.903 364.844 292.932C364.851 292.961 364.852 292.991 364.847 293.02C364.842 293.05 364.831 293.078 364.815 293.103C363.829 294.832 362.764 296.542 361.651 298.184C361.628 298.218 361.597 298.244 361.56 298.261C361.523 298.277 361.483 298.283 361.443 298.278C361.409 298.274 361.376 298.262 361.349 298.242ZM371.441 277.167C371.385 277.15 371.339 277.111 371.312 277.06C371.285 277.009 371.279 276.95 371.296 276.894C372.849 271.708 373.844 266.371 374.266 260.974C375.455 245.708 372.087 230.472 364.527 216.916C356.784 203.035 345.124 191.866 330.805 184.615C317.432 177.815 302.414 174.921 287.473 176.264C287.418 176.265 287.364 176.245 287.323 176.208C287.282 176.171 287.256 176.12 287.251 176.065C287.246 176.01 287.262 175.955 287.296 175.912C287.33 175.868 287.379 175.839 287.434 175.83C302.455 174.479 317.553 177.388 330.997 184.224C345.392 191.513 357.115 202.749 364.9 216.7C372.503 230.332 375.889 245.646 374.694 261.006C374.27 266.435 373.268 271.803 371.705 277.019C371.691 277.068 371.659 277.111 371.616 277.139C371.572 277.167 371.521 277.179 371.469 277.172L371.441 277.167Z" fill="#BDD0FB"/>
<path d="M445.121 453.013C449.972 453.64 453.334 452.353 455.107 449.188C456.918 445.965 456.394 441.856 453.805 438.963L440.49 424.092C440.45 424.054 440.397 424.032 440.343 424.031C440.288 424.03 440.234 424.049 440.193 424.086C440.152 424.122 440.126 424.173 440.121 424.228C440.116 424.282 440.131 424.337 440.164 424.381L453.479 439.251C455.94 442 456.448 445.908 454.728 448.972C453.028 452 449.778 453.211 445.021 452.558C444.993 452.555 444.964 452.556 444.936 452.564C444.908 452.571 444.882 452.584 444.859 452.602C444.836 452.619 444.817 452.641 444.803 452.666C444.788 452.691 444.779 452.718 444.775 452.747C444.771 452.775 444.773 452.804 444.781 452.832C444.788 452.86 444.801 452.886 444.818 452.909C444.836 452.931 444.857 452.951 444.882 452.965C444.907 452.979 444.935 452.989 444.963 452.993L445.121 453.013Z" fill="#BDD0FB"/>
<path d="M436.201 419.87C436.232 419.874 436.264 419.872 436.294 419.863C436.323 419.853 436.351 419.837 436.374 419.816C436.417 419.778 436.443 419.724 436.446 419.666C436.449 419.608 436.43 419.551 436.391 419.508L434.666 417.582C434.648 417.558 434.625 417.538 434.598 417.523C434.572 417.508 434.543 417.499 434.513 417.496C434.483 417.493 434.453 417.496 434.424 417.506C434.395 417.515 434.369 417.53 434.346 417.55C434.324 417.57 434.306 417.595 434.293 417.622C434.28 417.649 434.274 417.679 434.273 417.709C434.272 417.739 434.278 417.769 434.29 417.797C434.301 417.825 434.318 417.85 434.34 417.871L436.067 419.798C436.101 419.837 436.149 419.863 436.201 419.87Z" fill="#BDD0FB"/>
<path d="M204.832 136.837C204.546 136.828 204.274 136.71 204.073 136.506C203.872 136.301 203.758 136.027 203.754 135.741C203.644 129.604 201.754 99.1375 175.251 92.7708C145.746 85.679 132.243 116.061 132.243 116.061C132.243 116.061 95.7365 101.89 88.7359 139.857C65.8455 145.419 59.8985 175.685 74.7869 190.473C77.1394 192.818 80.3159 194.149 83.6371 194.181L226.99 195.484C229.049 195.496 231.055 194.835 232.704 193.601C234.352 192.368 235.553 190.63 236.123 188.651C240.601 173.353 246.471 137.824 204.832 136.837Z" fill="#91B3FA"/>
<path d="M201.555 137.494C201.27 137.485 200.998 137.367 200.797 137.163C200.597 136.959 200.483 136.686 200.479 136.4C200.361 130.515 198.489 102.264 173.529 96.3413C145.629 89.7228 132.86 118.091 132.86 118.091C132.86 118.091 98.3401 104.853 91.7201 140.313C70.2828 145.457 64.5616 173.23 78.13 187.179C79.302 188.387 80.7016 189.35 82.248 190.013C83.7944 190.676 85.4569 191.027 87.1394 191.044L222.088 192.259C224.152 192.27 226.162 191.605 227.812 190.367C229.462 189.128 230.662 187.383 231.228 185.399C235.437 170.864 240.425 138.43 201.555 137.494Z" fill="#BDD0FB"/>
<path d="M67.3649 395.192C66.1405 397.004 61.2747 438.032 60.5134 453.176C60.501 453.419 60.5383 453.662 60.6229 453.89C60.7075 454.118 60.8376 454.327 61.0054 454.503C61.1732 454.679 61.3752 454.819 61.5989 454.914C61.8226 455.01 62.0634 455.059 62.3066 455.058C62.7348 455.058 63.1489 454.905 63.4742 454.626C63.7996 454.348 64.0148 453.963 64.081 453.54L72.9819 396.5L67.3649 395.192Z" fill="#7D97F4"/>
<path d="M106.491 395.192C107.716 397.004 112.582 438.032 113.344 453.176C113.356 453.419 113.319 453.662 113.234 453.89C113.15 454.118 113.019 454.327 112.851 454.503C112.683 454.679 112.481 454.819 112.258 454.914C112.034 455.01 111.793 455.059 111.55 455.058C111.121 455.058 110.707 454.905 110.382 454.626C110.057 454.348 109.842 453.963 109.775 453.54L100.874 396.5L106.491 395.192Z" fill="#7D97F4"/>
<path d="M60.0041 391.991V392.438C59.9752 395.657 62.7468 398.296 66.2188 398.354L107.361 399.055C110.783 399.113 113.635 396.641 113.8 393.473L113.822 393.063C113.996 389.759 111.189 386.974 107.622 386.911L66.4605 386.172C62.9349 386.11 60.0345 388.725 60.0041 391.991Z" fill="#7D97F4"/>
<path d="M140.042 451.687C132.729 451.687 129.493 451.059 128.046 450.487C128.187 451.099 128.531 451.644 129.022 452.034C129.513 452.424 130.122 452.637 130.749 452.637H156.627C156.821 452.636 157.012 452.591 157.185 452.505C157.359 452.419 157.51 452.295 157.627 452.141C157.745 451.987 157.825 451.808 157.862 451.618C157.899 451.428 157.892 451.231 157.841 451.045C154.89 451.285 148.622 451.687 140.042 451.687Z" fill="url(#paint19_linear_202:2249)"/>
<path d="M157.836 451.047C157.795 450.89 157.722 450.742 157.623 450.613C155.652 448.096 151.689 444.145 146.308 444.221C138.419 444.332 135.667 445.187 129.537 444.268L128.089 449.063C127.95 449.528 127.935 450.021 128.046 450.493C129.493 451.065 132.729 451.693 140.043 451.693C148.622 451.687 154.89 451.285 157.836 451.047Z" fill="url(#paint20_linear_202:2249)"/>
<path d="M131.311 439.097L129.536 445.135C129.536 445.135 133.47 446.926 136.929 445.488L137.608 440.256L131.311 439.097Z" fill="url(#paint21_linear_202:2249)"/>
<path d="M184.937 447.884C179.235 452.464 176.322 454.006 174.837 454.467C175.33 454.853 175.939 455.06 176.565 455.055C177.191 455.051 177.797 454.834 178.284 454.441L198.454 438.242C198.604 438.121 198.725 437.968 198.806 437.793C198.888 437.618 198.928 437.427 198.924 437.234C198.919 437.042 198.871 436.852 198.781 436.681C198.692 436.511 198.565 436.363 198.409 436.249C196.257 438.275 191.624 442.51 184.937 447.884Z" fill="url(#paint22_linear_202:2249)"/>
<path d="M198.409 436.243C198.28 436.146 198.132 436.075 197.975 436.035C194.869 435.311 189.32 434.732 185.169 438.162C179.091 443.19 177.477 445.578 172.125 448.704L173.986 453.336C174.166 453.784 174.461 454.177 174.843 454.473C176.328 454.012 179.241 452.47 184.943 447.889C191.624 442.51 196.257 438.275 198.409 436.243Z" fill="url(#paint23_linear_202:2249)"/>
<path d="M93.3324 370.302C93.3324 370.302 137.119 373.876 146.101 378.105C155.083 382.334 138.772 441.598 138.772 441.598C138.772 441.598 136.326 442.775 130.884 441.083C130.884 441.083 136.465 397.349 132.312 387.864L84.9019 380.11L93.3324 370.302Z" fill="url(#paint24_linear_202:2249)"/>
<path d="M167.771 440.379C168.178 440.75 172.122 448.704 172.122 448.704C172.122 448.704 176.513 447.755 177.409 444.976L173.458 437.797L167.771 440.379Z" fill="url(#paint25_linear_202:2249)"/>
<path d="M66.9597 369.929C66.9597 369.929 65.5327 373.362 65.5906 377.926C65.6716 384.236 70.7444 389.359 77.0474 389.671L128.81 392.031C129.342 392.055 129.851 392.25 130.264 392.585C130.677 392.921 130.971 393.381 131.102 393.897C132.318 398.602 138.264 413.05 167.327 441.88C167.703 442.252 168.194 442.485 168.719 442.542C169.245 442.6 169.774 442.477 170.221 442.196L174.359 439.582C174.568 439.45 174.717 439.242 174.776 439.002C174.834 438.762 174.797 438.508 174.672 438.295L144.538 386.834C142.953 384.221 140.407 382.334 137.446 381.579L93.328 370.301L66.9597 369.929Z" fill="url(#paint26_linear_202:2249)"/>
<path d="M117.971 289.54C117.971 289.54 112.427 299.344 106.773 304.094L118.459 310.606C118.459 310.606 121.092 300.226 127.108 297.187L117.971 289.54Z" fill="url(#paint27_linear_202:2249)"/>
<path d="M66.0261 370.301C66.0261 370.301 80.0012 373.707 93.3395 370.301C93.3395 370.301 112.01 345.211 119.224 338.383C119.224 338.383 130.742 356.558 156.378 359.133L157.808 355.938C157.808 355.938 137.401 346.531 131.115 332.074C124.83 317.617 122.301 311.459 116.586 307.681C113.026 305.332 110.894 303.727 109.792 302.85C109.499 302.616 109.141 302.477 108.767 302.454C108.392 302.43 108.02 302.523 107.7 302.719C101.63 306.415 73.0889 325.964 66.0261 370.301Z" fill="url(#paint28_linear_202:2249)"/>
<path d="M111.552 324.89C111.552 324.89 114.037 331.366 118.459 337.132L111.552 324.89Z" fill="url(#paint29_linear_202:2249)"/>
<path d="M154.829 354.27L157.715 353.5L166.477 351.474C166.999 351.353 167.54 351.337 168.068 351.426C168.597 351.515 169.102 351.708 169.556 351.993L177.089 356.733L156.285 356.698L154.829 354.27Z" fill="url(#paint30_linear_202:2249)"/>
<path d="M126.776 274.842C126.776 274.842 132.165 283.801 133.1 288.752C134.035 293.703 135.535 296.798 129.901 298.562C124.267 300.326 119.029 298.093 115.742 293.472C115.742 293.472 110.61 286.36 111.123 283.102C111.635 279.844 126.776 274.842 126.776 274.842Z" fill="url(#paint31_linear_202:2249)"/>
<path d="M117.243 289.635L117.967 289.539C117.967 289.539 114.152 283.773 116.648 282.344C119.145 280.914 129.321 277.402 131.088 273.396C132.792 269.534 130.243 265.168 127.17 264.258C127.075 264.232 126.974 264.244 126.887 264.29C126.799 264.335 126.733 264.413 126.7 264.506L126.52 264.992C126.493 265.066 126.444 265.13 126.38 265.175C126.316 265.221 126.24 265.247 126.161 265.249C126.082 265.251 126.005 265.23 125.938 265.188C125.872 265.145 125.82 265.084 125.788 265.012C125.759 264.941 125.71 264.879 125.647 264.836C125.583 264.792 125.508 264.768 125.431 264.766C125.354 264.765 125.278 264.786 125.213 264.827C125.148 264.868 125.096 264.927 125.064 264.998C124.52 266.199 122.894 268.248 117.994 269.835C111.047 272.087 106.727 275.586 107.258 280.518C107.266 280.589 107.255 280.659 107.227 280.724C107.198 280.788 107.152 280.844 107.095 280.885C107.038 280.926 106.97 280.95 106.9 280.957C106.83 280.963 106.759 280.95 106.695 280.919C106.127 280.669 105.267 280.63 104.268 281.723C102.532 283.623 103.891 287.78 108.636 290.72C108.69 290.752 108.735 290.795 108.768 290.847C108.802 290.899 108.822 290.958 108.829 291.02C108.835 291.081 108.826 291.143 108.804 291.201C108.782 291.259 108.746 291.31 108.7 291.352C107.991 291.959 106.992 293.314 110.202 294.523C113.488 295.759 115.279 295.34 115.941 295.075C116.027 295.042 116.098 294.979 116.143 294.897C116.187 294.816 116.202 294.722 116.184 294.631L115.342 290.308C115.331 290.255 115.331 290.201 115.343 290.148C115.354 290.095 115.376 290.045 115.408 290.001C115.439 289.957 115.48 289.921 115.526 289.893C115.572 289.865 115.624 289.847 115.677 289.841L117.243 289.635Z" fill="url(#paint32_linear_202:2249)"/>
<path d="M117.541 290.524C117.541 290.524 115.164 284.661 112.667 286.722C110.17 288.783 114.983 293.337 117.193 293.276L117.541 290.524Z" fill="url(#paint33_linear_202:2249)"/>
<path d="M146.793 360.811C146.826 360.811 146.861 360.811 146.894 360.811L191.338 360.768C191.864 360.768 192.369 360.559 192.742 360.186C193.114 359.814 193.323 359.309 193.323 358.782C193.323 358.256 193.114 357.751 192.742 357.378C192.369 357.006 191.864 356.797 191.338 356.797L146.894 356.842C146.378 356.844 145.882 357.048 145.514 357.409C145.145 357.771 144.931 358.262 144.919 358.779C144.906 359.295 145.095 359.796 145.446 360.175C145.797 360.555 146.281 360.782 146.797 360.81L146.793 360.811Z" fill="url(#paint34_linear_202:2249)"/>
<path d="M208.549 317.287L208.504 317.378L189.805 357.697C189.689 357.934 189.622 358.192 189.608 358.456C189.593 358.719 189.631 358.983 189.719 359.232C189.808 359.48 189.945 359.709 190.123 359.904C190.301 360.099 190.515 360.256 190.755 360.367C190.994 360.479 191.254 360.541 191.517 360.55C191.781 360.56 192.044 360.517 192.291 360.424C192.538 360.331 192.764 360.189 192.956 360.008C193.147 359.826 193.301 359.609 193.407 359.367L212.108 319.048C212.332 318.577 212.362 318.037 212.191 317.545C212.02 317.052 211.663 316.646 211.196 316.415C210.728 316.184 210.189 316.146 209.694 316.309C209.198 316.472 208.787 316.823 208.549 317.287Z" fill="url(#paint35_linear_202:2249)"/>
<path d="M166.582 364.152C166.388 364.955 147.844 434.506 143.135 452.137C143.006 452.608 142.987 453.103 143.079 453.583C143.171 454.062 143.373 454.514 143.668 454.904C143.962 455.293 144.343 455.609 144.78 455.828C145.217 456.047 145.698 456.162 146.186 456.165C146.895 456.163 147.582 455.922 148.137 455.483C148.693 455.044 149.086 454.431 149.252 453.742L169.838 370.28L166.582 364.152Z" fill="#BDD0FB"/>
<path d="M176.736 364.152C176.931 364.955 195.476 434.506 200.182 452.137C200.312 452.608 200.331 453.103 200.239 453.583C200.146 454.062 199.945 454.514 199.65 454.904C199.355 455.293 198.975 455.609 198.538 455.828C198.101 456.047 197.62 456.162 197.131 456.165C196.423 456.162 195.736 455.922 195.18 455.483C194.625 455.044 194.232 454.431 194.066 453.742L173.481 370.28L176.736 364.152Z" fill="#BDD0FB"/>
<path d="M177.509 361.877H165.959V371.152C165.957 371.468 166.017 371.78 166.136 372.072C166.255 372.364 166.43 372.629 166.652 372.853C166.873 373.078 167.137 373.256 167.427 373.378C167.718 373.501 168.029 373.565 168.344 373.566H169.936V394.399C169.935 394.637 169.98 394.874 170.07 395.095C170.16 395.316 170.293 395.517 170.46 395.687C170.628 395.856 170.827 395.991 171.047 396.084C171.267 396.177 171.503 396.225 171.741 396.227C171.98 396.225 172.216 396.177 172.436 396.085C172.656 395.992 172.855 395.857 173.023 395.687C173.191 395.517 173.323 395.316 173.413 395.095C173.503 394.874 173.549 394.638 173.547 394.399V373.566H174.351C174.769 373.564 175.183 373.479 175.568 373.317C175.953 373.154 176.303 372.918 176.597 372.62C176.891 372.323 177.123 371.97 177.281 371.583C177.439 371.195 177.518 370.78 177.516 370.362L177.509 361.877Z" fill="#BDD0FB"/>
<path d="M137.562 359.654H202.051C202.491 359.655 202.918 359.804 203.265 360.075C203.612 360.347 203.858 360.727 203.964 361.155L204.866 364.684C204.941 364.979 204.949 365.287 204.888 365.584C204.827 365.882 204.698 366.162 204.513 366.402C204.327 366.643 204.089 366.838 203.817 366.973C203.544 367.107 203.245 367.178 202.941 367.18L136.769 366.795C136.467 366.79 136.17 366.718 135.901 366.582C135.631 366.446 135.396 366.251 135.213 366.012C135.03 365.772 134.903 365.494 134.843 365.199C134.782 364.903 134.79 364.598 134.864 364.305L135.647 361.159C135.753 360.73 135.999 360.35 136.346 360.077C136.693 359.804 137.121 359.655 137.562 359.654Z" fill="#BDD0FB"/>
<defs>
<linearGradient id="paint0_linear_202:2249" x1="488.714" y1="508.669" x2="192.39" y2="188.828" gradientUnits="userSpaceOnUse">
<stop stop-color="#DAE3FE"/>
<stop offset="1" stop-color="#E9EFFD"/>
</linearGradient>
<linearGradient id="paint1_linear_202:2249" x1="333.246" y1="82.9508" x2="332.272" y2="-77.9379" gradientUnits="userSpaceOnUse">
<stop stop-color="#E1473D"/>
<stop offset="1" stop-color="#E9605A"/>
</linearGradient>
<linearGradient id="paint2_linear_202:2249" x1="289.765" y1="-238.588" x2="318.043" y2="6.15888" gradientUnits="userSpaceOnUse">
<stop stop-color="#FF928E"/>
<stop offset="1" stop-color="#FE7062"/>
</linearGradient>
<linearGradient id="paint3_linear_202:2249" x1="416.875" y1="-68.934" x2="355.448" y2="78.7842" gradientUnits="userSpaceOnUse">
<stop stop-color="#FEBBBA"/>
<stop offset="1" stop-color="#FF928E"/>
</linearGradient>
<linearGradient id="paint4_linear_202:2249" x1="733065" y1="-335.702" x2="732991" y2="7175.3" gradientUnits="userSpaceOnUse">
<stop stop-color="#FEBBBA"/>
<stop offset="1" stop-color="#FF928E"/>
</linearGradient>
<linearGradient id="paint5_linear_202:2249" x1="515377" y1="-78665.3" x2="517354" y2="8310.72" gradientUnits="userSpaceOnUse">
<stop stop-color="#FF928E"/>
<stop offset="1" stop-color="#FE7062"/>
</linearGradient>
<linearGradient id="paint6_linear_202:2249" x1="653326" y1="6359.39" x2="653281" y2="10252.1" gradientUnits="userSpaceOnUse">
<stop stop-color="#FEBBBA"/>
<stop offset="1" stop-color="#FF928E"/>
</linearGradient>
<linearGradient id="paint7_linear_202:2249" x1="755307" y1="2727.46" x2="755137" y2="16218.1" gradientUnits="userSpaceOnUse">
<stop stop-color="#FEBBBA"/>
<stop offset="1" stop-color="#FF928E"/>
</linearGradient>
<linearGradient id="paint8_linear_202:2249" x1="502009" y1="-77457.3" x2="503947" y2="8552.27" gradientUnits="userSpaceOnUse">
<stop stop-color="#FF928E"/>
<stop offset="1" stop-color="#FE7062"/>
</linearGradient>
<linearGradient id="paint9_linear_202:2249" x1="750897" y1="2892.6" x2="750802" y2="13579.7" gradientUnits="userSpaceOnUse">
<stop stop-color="#FEBBBA"/>
<stop offset="1" stop-color="#FF928E"/>
</linearGradient>
<linearGradient id="paint10_linear_202:2249" x1="740781" y1="6153.22" x2="740718" y2="11905.2" gradientUnits="userSpaceOnUse">
<stop stop-color="#FEBBBA"/>
<stop offset="1" stop-color="#FF928E"/>
</linearGradient>
<linearGradient id="paint11_linear_202:2249" x1="489334" y1="-77375.2" x2="491286" y2="8924.17" gradientUnits="userSpaceOnUse">
<stop stop-color="#FF928E"/>
<stop offset="1" stop-color="#FE7062"/>
</linearGradient>
<linearGradient id="paint12_linear_202:2249" x1="736610" y1="6989.63" x2="736525" y2="15089" gradientUnits="userSpaceOnUse">
<stop stop-color="#FEBBBA"/>
<stop offset="1" stop-color="#FF928E"/>
</linearGradient>
<linearGradient id="paint13_linear_202:2249" x1="748791" y1="8365.68" x2="748709" y2="15797.1" gradientUnits="userSpaceOnUse">
<stop stop-color="#FEBBBA"/>
<stop offset="1" stop-color="#FF928E"/>
</linearGradient>
<linearGradient id="paint14_linear_202:2249" x1="265.813" y1="392.607" x2="195.604" y2="181.982" gradientUnits="userSpaceOnUse">
<stop stop-color="#09005D"/>
<stop offset="1" stop-color="#1A0F91"/>
</linearGradient>
<linearGradient id="paint15_linear_202:2249" x1="85.8107" y1="310.058" x2="387.66" y2="310.058" gradientUnits="userSpaceOnUse">
<stop stop-color="#4F52FF"/>
<stop offset="1" stop-color="#4042E2"/>
</linearGradient>
<linearGradient id="paint16_linear_202:2249" x1="-141625" y1="41166.4" x2="-117507" y2="178143" gradientUnits="userSpaceOnUse">
<stop stop-color="#09005D"/>
<stop offset="1" stop-color="#1A0F91"/>
</linearGradient>
<linearGradient id="paint17_linear_202:2249" x1="-158135" y1="201158" x2="-284774" y2="137127" gradientUnits="userSpaceOnUse">
<stop stop-color="#09005D"/>
<stop offset="1" stop-color="#1A0F91"/>
</linearGradient>
<linearGradient id="paint18_linear_202:2249" x1="53702.2" y1="282977" x2="-127707" y2="201243" gradientUnits="userSpaceOnUse">
<stop stop-color="#09005D"/>
<stop offset="1" stop-color="#1A0F91"/>
</linearGradient>
<linearGradient id="paint19_linear_202:2249" x1="27834.9" y1="7349.53" x2="33985.8" y2="7349.53" gradientUnits="userSpaceOnUse">
<stop stop-color="#4F52FF"/>
<stop offset="1" stop-color="#4042E2"/>
</linearGradient>
<linearGradient id="paint20_linear_202:2249" x1="32599.5" y1="21472" x2="32492.1" y2="24437.1" gradientUnits="userSpaceOnUse">
<stop stop-color="#09005D"/>
<stop offset="1" stop-color="#1A0F91"/>
</linearGradient>
<linearGradient id="paint21_linear_202:2249" x1="7707.29" y1="22316.4" x2="8157.44" y2="22316.4" gradientUnits="userSpaceOnUse">
<stop stop-color="#FEBBBA"/>
<stop offset="1" stop-color="#FF928E"/>
</linearGradient>
<linearGradient id="paint22_linear_202:2249" x1="30327.7" y1="60037.4" x2="34336.6" y2="60037.4" gradientUnits="userSpaceOnUse">
<stop stop-color="#4F52FF"/>
<stop offset="1" stop-color="#4042E2"/>
</linearGradient>
<linearGradient id="paint23_linear_202:2249" x1="36084.4" y1="54634.4" x2="35304" y2="62097.1" gradientUnits="userSpaceOnUse">
<stop stop-color="#09005D"/>
<stop offset="1" stop-color="#1A0F91"/>
</linearGradient>
<linearGradient id="paint24_linear_202:2249" x1="69820.9" y1="192195" x2="36030.6" y2="219075" gradientUnits="userSpaceOnUse">
<stop stop-color="#09005D"/>
<stop offset="1" stop-color="#1A0F91"/>
</linearGradient>
<linearGradient id="paint25_linear_202:2249" x1="11761.5" y1="34822.8" x2="12403.3" y2="34822.8" gradientUnits="userSpaceOnUse">
<stop stop-color="#FEBBBA"/>
<stop offset="1" stop-color="#FF928E"/>
</linearGradient>
<linearGradient id="paint26_linear_202:2249" x1="133547" y1="173599" x2="126019" y2="190083" gradientUnits="userSpaceOnUse">
<stop stop-color="#09005D"/>
<stop offset="1" stop-color="#1A0F91"/>
</linearGradient>
<linearGradient id="paint27_linear_202:2249" x1="17048.1" y1="46938.5" x2="17757.5" y2="45211.8" gradientUnits="userSpaceOnUse">
<stop stop-color="#FEBBBA"/>
<stop offset="1" stop-color="#FF928E"/>
</linearGradient>
<linearGradient id="paint28_linear_202:2249" x1="85960.9" y1="67931.7" x2="82774.7" y2="125545" gradientUnits="userSpaceOnUse">
<stop stop-color="#FF928E"/>
<stop offset="1" stop-color="#FE7062"/>
</linearGradient>
<linearGradient id="paint29_linear_202:2249" x1="5737.31" y1="29426.9" x2="6066.89" y2="29426.9" gradientUnits="userSpaceOnUse">
<stop stop-color="#E1473D"/>
<stop offset="1" stop-color="#E9605A"/>
</linearGradient>
<linearGradient id="paint30_linear_202:2249" x1="24942.5" y1="13954.8" x2="28366" y2="13954.8" gradientUnits="userSpaceOnUse">
<stop stop-color="#FEBBBA"/>
<stop offset="1" stop-color="#FF928E"/>
</linearGradient>
<linearGradient id="paint31_linear_202:2249" x1="72081.3" y1="52029.6" x2="68545.2" y2="55361.1" gradientUnits="userSpaceOnUse">
<stop stop-color="#FEBBBA"/>
<stop offset="1" stop-color="#FF928E"/>
</linearGradient>
<linearGradient id="paint32_linear_202:2249" x1="85167.6" y1="64297.6" x2="90586" y2="69140.6" gradientUnits="userSpaceOnUse">
<stop stop-color="#09005D"/>
<stop offset="1" stop-color="#1A0F91"/>
</linearGradient>
<linearGradient id="paint33_linear_202:2249" x1="17619.3" y1="15355.7" x2="16651.1" y2="16136.3" gradientUnits="userSpaceOnUse">
<stop stop-color="#FEBBBA"/>
<stop offset="1" stop-color="#FF928E"/>
</linearGradient>
<linearGradient id="paint34_linear_202:2249" x1="-1.38454e+06" y1="-193079" x2="-1.38438e+06" y2="-188499" gradientUnits="userSpaceOnUse">
<stop stop-color="#09005D"/>
<stop offset="1" stop-color="#1A0F91"/>
</linearGradient>
<linearGradient id="paint35_linear_202:2249" x1="1.467e+06" y1="148096" x2="1.44874e+06" y2="161274" gradientUnits="userSpaceOnUse">
<stop stop-color="#09005D"/>
<stop offset="1" stop-color="#1A0F91"/>
</linearGradient>
</defs>
</svg>
