<svg width="68" height="92" viewBox="0 0 68 92" fill="none" xmlns="http://www.w3.org/2000/svg">
<path d="M17.7714 51.6427C17.7888 52.5476 8.30018 72.4933 3.8551 81.7882C3.67728 82.1599 3.61541 82.5764 3.67751 82.9837C3.73962 83.3909 3.92283 83.7701 4.20333 84.0718C4.48383 84.3736 4.84863 84.5839 5.25029 84.6755C5.65195 84.7671 6.07188 84.7358 6.45547 84.5855L16.876 80.5214C17.2891 80.3619 17.7426 80.3396 18.1694 80.4576C18.5962 80.5757 18.9737 80.8279 19.2462 81.177L26.9457 91.115C27.1896 91.431 27.5202 91.6691 27.8972 91.8002C28.2742 91.9313 28.6813 91.9498 29.0686 91.8533C29.4559 91.7568 29.8067 91.5495 30.0782 91.2569C30.3496 90.9642 30.5299 90.5988 30.597 90.2053L36.455 56.3069L17.7714 51.6427Z" fill="url(#paint0_linear_202_2442)"/>
<path d="M49.6774 51.041C49.6949 51.9443 59.9281 71.5201 64.7224 80.6389C64.9136 81.0037 64.9908 81.4175 64.9438 81.8268C64.8969 82.236 64.728 82.6216 64.4591 82.9336C64.1902 83.2456 63.8338 83.4696 63.436 83.5765C63.0382 83.6834 62.6175 83.6682 62.2284 83.5329L51.6634 79.8657C51.2446 79.7201 50.7899 79.714 50.3673 79.8482C49.9446 79.9824 49.5768 80.2497 49.3186 80.6103L42.0002 90.8308C41.7676 91.1548 41.4458 91.4041 41.074 91.5483C40.7022 91.6925 40.2965 91.7254 39.9063 91.6429C39.5161 91.5604 39.1584 91.3662 38.8768 91.0838C38.5951 90.8015 38.4018 90.4433 38.3203 90.0529L31.1875 56.3973L49.6774 51.041Z" fill="url(#paint1_linear_202_2442)"/>
<path d="M34.2641 64.0157C50.7227 64.0157 64.0651 50.6733 64.0651 34.2146C64.0651 17.756 50.7227 4.41357 34.2641 4.41357C17.8054 4.41357 4.46301 17.756 4.46301 34.2146C4.46301 50.6733 17.8054 64.0157 34.2641 64.0157Z" fill="url(#paint2_linear_202_2442)"/>
<path d="M51.2044 50.8604C60.4804 41.5845 60.4804 26.5452 51.2044 17.2692C41.9285 7.99324 26.8892 7.99325 17.6132 17.2692C8.33728 26.5452 8.33727 41.5845 17.6132 50.8604C26.8892 60.1364 41.9285 60.1364 51.2044 50.8604Z" fill="url(#paint3_linear_202_2442)"/>
<defs>
<linearGradient id="paint0_linear_202_2442" x1="22.3476" y1="72.0545" x2="40.4714" y2="22.6448" gradientUnits="userSpaceOnUse">
<stop stop-color="#FE7062"/>
<stop offset="1" stop-color="#FF928E"/>
</linearGradient>
<linearGradient id="paint1_linear_202_2442" x1="32331.3" y1="38616.3" x2="29188.5" y2="48822.5" gradientUnits="userSpaceOnUse">
<stop stop-color="#FE7062"/>
<stop offset="1" stop-color="#FF928E"/>
</linearGradient>
<linearGradient id="paint2_linear_202_2442" x1="2.42847" y1="69.0256" x2="76.8055" y2="-12.2926" gradientUnits="userSpaceOnUse">
<stop stop-color="#E1473D"/>
<stop offset="1" stop-color="#E9605A"/>
</linearGradient>
<linearGradient id="paint3_linear_202_2442" x1="31385.9" y1="59270.1" x2="49029.1" y2="39886.2" gradientUnits="userSpaceOnUse">
<stop stop-color="#FE7062"/>
<stop offset="1" stop-color="#FF928E"/>
</linearGradient>
</defs>
</svg>
